<svg width="107" height="30" viewBox="0 0 107 30" fill="none" xmlns="http://www.w3.org/2000/svg">
<path d="M12.6805 10.2091L5.40593 21.5324C4.14552 23.4943 5.50729 26.0811 7.83808 26.1525L23.2858 26.6257C24.3391 26.658 25.3321 26.1353 25.9017 25.2487L33.1763 13.9254C34.4367 11.9635 33.075 9.37667 30.7442 9.30526L15.2964 8.832C14.2431 8.79973 13.2501 9.32246 12.6805 10.2091Z" stroke="#6F78F0"/>
<path d="M10.1385 4.75129L2.86394 16.0746C1.60353 18.0365 2.9653 20.6233 5.29609 20.6947L20.7439 21.168C21.7971 21.2003 22.7901 20.6775 23.3597 19.7909L30.6343 8.46763C31.8947 6.50573 30.533 3.9189 28.2022 3.8475L12.7544 3.37424C11.7011 3.34197 10.7081 3.8647 10.1385 4.75129Z" fill="#6F78F0"/>
<path d="M50.4551 24V5.81818H56.3233C57.6136 5.81818 58.6907 6.06676 59.5548 6.56392C60.4249 7.05516 61.0789 7.72396 61.5168 8.57031C61.9607 9.41667 62.1827 10.3696 62.1827 11.429C62.1827 12.4884 61.9637 13.4442 61.5257 14.2965C61.0878 15.1429 60.4367 15.8146 59.5726 16.3118C58.7085 16.803 57.6343 17.0487 56.3499 17.0487H51.7335V15.5572H56.3056C57.2584 15.5572 58.0486 15.3796 58.6759 15.0245C59.3033 14.6635 59.7709 14.1722 60.0786 13.5508C60.3923 12.9293 60.5492 12.2221 60.5492 11.429C60.5492 10.6359 60.3923 9.92862 60.0786 9.30717C59.7709 8.68572 59.3003 8.19744 58.6671 7.84233C58.0397 7.48722 57.2436 7.30966 56.2789 7.30966H52.1152V24H50.4551ZM67.8102 24.3107C66.9875 24.3107 66.2358 24.1509 65.5552 23.8313C64.8746 23.5058 64.333 23.0382 63.9306 22.4286C63.5281 21.8131 63.3269 21.0674 63.3269 20.1914C63.3269 19.5167 63.4541 18.9485 63.7086 18.4869C63.9631 18.0252 64.3241 17.6464 64.7917 17.3505C65.2593 17.0546 65.8127 16.8208 66.4519 16.6491C67.0911 16.4775 67.7954 16.3443 68.5648 16.2496C69.3283 16.1549 69.9734 16.0721 70.5002 16.0011C71.0328 15.93 71.4382 15.8176 71.7164 15.6637C71.9946 15.5098 72.1337 15.2612 72.1337 14.918V14.5984C72.1337 13.6692 71.8555 12.9382 71.2992 12.4055C70.7487 11.867 69.9556 11.5977 68.9199 11.5977C67.9374 11.5977 67.1355 11.8137 66.514 12.2457C65.8985 12.6778 65.4664 13.1868 65.2178 13.7727L63.7175 13.2312C64.0253 12.4854 64.4514 11.8906 64.9959 11.4467C65.5404 10.9969 66.15 10.6744 66.8247 10.479C67.4994 10.2778 68.183 10.1772 68.8755 10.1772C69.3963 10.1772 69.9379 10.2453 70.5002 10.3814C71.0683 10.5175 71.5951 10.7543 72.0804 11.0916C72.5657 11.4231 72.9593 11.8877 73.2612 12.4854C73.563 13.0773 73.7139 13.829 73.7139 14.7404V24H72.1337V21.8427H72.036C71.8466 22.2451 71.5655 22.6358 71.1926 23.0146C70.8198 23.3933 70.3522 23.7041 69.7899 23.9467C69.2277 24.1894 68.5677 24.3107 67.8102 24.3107ZM68.0232 22.8636C68.8637 22.8636 69.5917 22.6772 70.2072 22.3043C70.8227 21.9315 71.2962 21.4373 71.6276 20.8217C71.965 20.2003 72.1337 19.5167 72.1337 18.771V16.8001C72.0153 16.9125 71.817 17.0131 71.5389 17.1019C71.2666 17.1907 70.95 17.2706 70.5889 17.3416C70.2338 17.4067 69.8787 17.4629 69.5236 17.5103C69.1685 17.5576 68.8489 17.5991 68.5648 17.6346C67.7954 17.7293 67.1384 17.8772 66.5939 18.0785C66.0494 18.2797 65.6321 18.5579 65.3421 18.913C65.0521 19.2622 64.9071 19.712 64.9071 20.2624C64.9071 21.091 65.203 21.7332 65.7949 22.1889C66.3868 22.6387 67.1295 22.8636 68.0232 22.8636ZM76.1853 24V10.3636H77.7745V24H76.1853ZM76.9932 8.01989C76.6677 8.01989 76.3895 7.91039 76.1587 7.69141C75.9279 7.4665 75.8125 7.19721 75.8125 6.88352C75.8125 6.56984 75.9279 6.3035 76.1587 6.08452C76.3895 5.85961 76.6677 5.74716 76.9932 5.74716C77.3188 5.74716 77.5969 5.85961 77.8277 6.08452C78.0586 6.3035 78.174 6.56984 78.174 6.88352C78.174 7.19721 78.0586 7.4665 77.8277 7.69141C77.5969 7.91039 77.3188 8.01989 76.9932 8.01989ZM85.4061 29.3977C84.4769 29.3977 83.6631 29.2764 82.9647 29.0337C82.2663 28.797 81.6774 28.4715 81.198 28.0572C80.7186 27.6429 80.3458 27.1783 80.0794 26.6634L81.3756 25.8111C81.5709 26.1544 81.8313 26.4917 82.1568 26.8232C82.4883 27.1546 82.9174 27.4298 83.4441 27.6488C83.9768 27.8678 84.6308 27.9773 85.4061 27.9773C86.6135 27.9773 87.5871 27.6754 88.3269 27.0717C89.0727 26.468 89.4456 25.5299 89.4456 24.2575V21.1857H89.3035C89.12 21.6 88.8567 22.0143 88.5134 22.4286C88.1701 22.837 87.7203 23.1773 87.164 23.4496C86.6135 23.7218 85.9299 23.858 85.1132 23.858C84.0242 23.858 83.0565 23.5887 82.2101 23.0501C81.3697 22.5115 80.7068 21.7421 80.2215 20.7418C79.7421 19.7357 79.5024 18.5372 79.5024 17.1463C79.5024 15.7673 79.7362 14.554 80.2037 13.5064C80.6772 12.4588 81.3371 11.642 82.1835 11.0561C83.0298 10.4702 84.0153 10.1772 85.1398 10.1772C85.9743 10.1772 86.6668 10.3252 87.2172 10.6211C87.7676 10.9111 88.2086 11.2721 88.54 11.7042C88.8774 12.1362 89.1408 12.5565 89.3301 12.9648H89.4899V10.3636H91.0347V24.3551C91.0347 25.5092 90.7891 26.4592 90.2978 27.2049C89.8066 27.9506 89.1378 28.5011 88.2914 28.8562C87.4451 29.2172 86.4833 29.3977 85.4061 29.3977ZM85.2996 22.4109C86.1756 22.4109 86.9242 22.2008 87.5457 21.7805C88.1671 21.3544 88.6436 20.7448 88.975 19.9517C89.3065 19.1586 89.4722 18.2146 89.4722 17.1197C89.4722 16.0543 89.3094 15.1103 88.9839 14.2876C88.6584 13.459 88.1849 12.808 87.5635 12.3345C86.9479 11.8551 86.1933 11.6154 85.2996 11.6154C84.3881 11.6154 83.6187 11.861 82.9914 12.3523C82.364 12.8435 81.8905 13.5064 81.5709 14.3409C81.2513 15.1695 81.0915 16.0958 81.0915 17.1197C81.0915 18.1613 81.2543 19.0817 81.5798 19.8807C81.9053 20.6738 82.3818 21.2952 83.0091 21.745C83.6365 22.1889 84.4 22.4109 85.2996 22.4109ZM98.9815 24.2841C97.709 24.2841 96.6082 23.9882 95.679 23.3963C94.7497 22.7985 94.0306 21.9729 93.5216 20.9194C93.0186 19.86 92.767 18.6407 92.767 17.2617C92.767 15.8886 93.0186 14.6694 93.5216 13.604C94.0306 12.5328 94.732 11.6953 95.6257 11.0916C96.5253 10.482 97.564 10.1772 98.7418 10.1772C99.4816 10.1772 100.195 10.3133 100.881 10.5856C101.568 10.8519 102.183 11.2633 102.728 11.8196C103.278 12.37 103.713 13.0655 104.033 13.9059C104.353 14.7404 104.512 15.7288 104.512 16.8711V17.6523H93.859V16.2585H102.897C102.897 15.3826 102.719 14.5954 102.364 13.897C102.015 13.1927 101.526 12.6364 100.899 12.228C100.278 11.8196 99.5586 11.6154 98.7418 11.6154C97.8777 11.6154 97.1172 11.8462 96.4602 12.3079C95.8032 12.7695 95.2883 13.3791 94.9155 14.1367C94.5485 14.8943 94.3621 15.7229 94.3562 16.6225V17.457C94.3562 18.5401 94.5426 19.4871 94.9155 20.2979C95.2942 21.1029 95.8299 21.7273 96.5223 22.1712C97.2148 22.6151 98.0345 22.837 98.9815 22.837C99.6266 22.837 100.192 22.7364 100.677 22.5352C101.168 22.3339 101.58 22.0646 101.911 21.7273C102.249 21.384 102.503 21.0082 102.675 20.5998L104.175 21.0881C103.968 21.6622 103.628 22.1919 103.154 22.6772C102.687 23.1625 102.101 23.5531 101.396 23.8491C100.698 24.1391 99.893 24.2841 98.9815 24.2841Z" fill="#1B1B1B"/>
</svg>
