<svg xmlns="http://www.w3.org/2000/svg" width="16" height="16" fill="none"><g clip-path="url(#a)"><path fill="#fff" d="M0 8a8 8 0 1 0 16 0A8 8 0 0 0 0 8Z"/><path stroke="#6F78F0" d="m6.136 6.03-2.717 4.228a.96.96 0 0 0 .779 1.479l5.732.176a.96.96 0 0 0 .837-.441l2.716-4.229a.96.96 0 0 0-.778-1.478l-5.732-.176a.96.96 0 0 0-.837.441Z"/><path fill="#6F78F0" d="M5.233 4.092 2.516 8.32A.96.96 0 0 0 3.295 9.8l5.732.175a.96.96 0 0 0 .837-.44l2.717-4.229a.96.96 0 0 0-.779-1.478L6.07 3.65a.96.96 0 0 0-.837.44Z"/></g><defs><clipPath id="a"><path fill="#fff" d="M0 0h16v16H0z"/></clipPath></defs></svg>